<svg width="14" height="14" viewBox="0 0 14 14" fill="none" xmlns="http://www.w3.org/2000/svg">
  <path d="M5.32 13.7207H8.68C9.12556 13.7207 9.55287 13.5437 9.86794 13.2287C10.183 12.9136 10.36 12.4863 10.36 12.0407V11.5983C11.2176 11.0381 11.9225 10.2734 12.4113 9.37313C12.9001 8.47283 13.1573 7.46515 13.16 6.44074C13.16 6.29222 13.101 6.14978 12.996 6.04476C12.891 5.93974 12.7485 5.88074 12.6 5.88074H1.4C1.25148 5.88074 1.10904 5.93974 1.00402 6.04476C0.898996 6.14978 0.839996 6.29222 0.839996 6.44074C0.842645 7.46515 1.09992 8.47283 1.58868 9.37313C2.07744 10.2734 2.78235 11.0381 3.64 11.5983V12.0407C3.64 12.4863 3.817 12.9136 4.13206 13.2287C4.44712 13.5437 4.87443 13.7207 5.32 13.7207ZM1.9908 7.00074H12.0092C11.9185 7.78406 11.6462 8.53541 11.2141 9.19503C10.782 9.85464 10.2019 10.4043 9.52 10.8003C9.43495 10.8494 9.36431 10.92 9.31517 11.0051C9.26602 11.0901 9.2401 11.1865 9.24 11.2847V12.0407C9.24 12.1893 9.181 12.3317 9.07598 12.4367C8.97096 12.5417 8.82852 12.6007 8.68 12.6007H5.32C5.17147 12.6007 5.02904 12.5417 4.92402 12.4367C4.819 12.3317 4.76 12.1893 4.76 12.0407V11.2847C4.7599 11.1865 4.73397 11.0901 4.68483 11.0051C4.63568 10.92 4.56504 10.8494 4.48 10.8003C3.79809 10.4043 3.218 9.85464 2.78587 9.19503C2.35375 8.53541 2.0815 7.78406 1.9908 7.00074Z" fill="#BDBDBD" />
  <path d="M9.92883 0.4823L7.12883 3.8423C7.08176 3.89893 7.04631 3.96427 7.0245 4.03459C7.00268 4.10492 6.99494 4.17886 7.0017 4.25218C7.01535 4.40026 7.08727 4.53685 7.20163 4.6319C7.31599 4.72695 7.46343 4.77268 7.61151 4.75903C7.75958 4.74538 7.89617 4.67346 7.99123 4.5591L10.7912 1.1991C10.8863 1.08474 10.932 0.937301 10.9184 0.789223C10.9047 0.641144 10.8328 0.504554 10.7184 0.4095C10.6041 0.314447 10.4566 0.268716 10.3085 0.282368C10.1605 0.296021 10.0239 0.367938 9.92883 0.4823Z" fill="#BDBDBD" />
  <path d="M9.91199 4.53674C9.95611 4.59557 10.0114 4.64514 10.0747 4.68261C10.138 4.72007 10.208 4.74471 10.2808 4.75511C10.3536 4.76551 10.4277 4.76147 10.499 4.74322C10.5702 4.72497 10.6372 4.69286 10.696 4.64874L12.936 2.96874C12.9948 2.92461 13.0444 2.86933 13.0819 2.80606C13.1193 2.74278 13.144 2.67274 13.1544 2.59994C13.1648 2.52713 13.1607 2.453 13.1425 2.38176C13.1242 2.31052 13.0921 2.24357 13.048 2.18474C13.0039 2.12591 12.9486 2.07634 12.8853 2.03887C12.822 2.00141 12.752 1.97677 12.6792 1.96637C12.6064 1.95597 12.5322 1.96001 12.461 1.97826C12.3898 1.99651 12.3228 2.02862 12.264 2.07274L10.024 3.75274C9.90517 3.84185 9.82662 3.97451 9.80562 4.12154C9.78461 4.26857 9.82288 4.41792 9.91199 4.53674Z" fill="#BDBDBD" />
  <path d="M3.63999 2.52074C3.94927 2.52074 4.19999 2.27002 4.19999 1.96074C4.19999 1.65146 3.94927 1.40074 3.63999 1.40074C3.33071 1.40074 3.07999 1.65146 3.07999 1.96074C3.07999 2.27002 3.33071 2.52074 3.63999 2.52074Z" fill="#BDBDBD" />
  <path d="M1.95999 4.76075C2.26927 4.76075 2.51999 4.51003 2.51999 4.20075C2.51999 3.89147 2.26927 3.64075 1.95999 3.64075C1.65071 3.64075 1.39999 3.89147 1.39999 4.20075C1.39999 4.51003 1.65071 4.76075 1.95999 4.76075Z" fill="#BDBDBD" />
  <path d="M4.76001 4.76075C5.06929 4.76075 5.32001 4.51003 5.32001 4.20075C5.32001 3.89147 5.06929 3.64075 4.76001 3.64075C4.45073 3.64075 4.20001 3.89147 4.20001 4.20075C4.20001 4.51003 4.45073 4.76075 4.76001 4.76075Z" fill="#BDBDBD" />
  <path d="M6.44001 2.52074C6.74928 2.52074 7.00001 2.27002 7.00001 1.96074C7.00001 1.65146 6.74928 1.40074 6.44001 1.40074C6.13073 1.40074 5.88 1.65146 5.88 1.96074C5.88 2.27002 6.13073 2.52074 6.44001 2.52074Z" fill="#BDBDBD" />
</svg>
