<svg width="14" height="14" viewBox="0 0 14 14" fill="none" xmlns="http://www.w3.org/2000/svg">
  <path d="M12.04 0.279999H1.96C1.51444 0.279999 1.08712 0.456998 0.772059 0.772059C0.456998 1.08712 0.279999 1.51444 0.279999 1.96V12.04C0.279999 12.4856 0.456998 12.9129 0.772059 13.2279C1.08712 13.543 1.51444 13.72 1.96 13.72H12.04C12.4856 13.72 12.9129 13.543 13.2279 13.2279C13.543 12.9129 13.72 12.4856 13.72 12.04V1.96C13.72 1.51444 13.543 1.08712 13.2279 0.772059C12.9129 0.456998 12.4856 0.279999 12.04 0.279999ZM1.4 1.96C1.4 1.81148 1.459 1.66904 1.56402 1.56402C1.66904 1.459 1.81148 1.4 1.96 1.4H12.04C12.1885 1.4 12.331 1.459 12.436 1.56402C12.541 1.66904 12.6 1.81148 12.6 1.96V4.76H1.4V1.96ZM3.64 5.88H10.36V10.36H3.64V5.88ZM12.04 12.6H1.96C1.81148 12.6 1.66904 12.541 1.56402 12.436C1.459 12.331 1.4 12.1885 1.4 12.04V5.88H2.52V10.92C2.52 11.0685 2.579 11.211 2.68402 11.316C2.78904 11.421 2.93148 11.48 3.08 11.48H10.92C11.0685 11.48 11.211 11.421 11.316 11.316C11.421 11.211 11.48 11.0685 11.48 10.92V5.88H12.6V12.04C12.6 12.1885 12.541 12.331 12.436 12.436C12.331 12.541 12.1885 12.6 12.04 12.6Z" fill="#BDBDBD" />
  <path d="M3.63999 3.64C3.94927 3.64 4.19999 3.38928 4.19999 3.08C4.19999 2.77072 3.94927 2.52 3.63999 2.52C3.33071 2.52 3.07999 2.77072 3.07999 3.08C3.07999 3.38928 3.33071 3.64 3.63999 3.64Z" fill="#BDBDBD" />
  <path d="M5.88001 3.64C6.18929 3.64 6.44001 3.38928 6.44001 3.08C6.44001 2.77072 6.18929 2.52 5.88001 2.52C5.57073 2.52 5.32001 2.77072 5.32001 3.08C5.32001 3.38928 5.57073 3.64 5.88001 3.64Z" fill="#BDBDBD" />
  <path d="M8.12 3.64C8.42928 3.64 8.68 3.38928 8.68 3.08C8.68 2.77072 8.42928 2.52 8.12 2.52C7.81072 2.52 7.56 2.77072 7.56 3.08C7.56 3.38928 7.81072 3.64 8.12 3.64Z" fill="#BDBDBD" />
  <path d="M10.36 3.64C10.6693 3.64 10.92 3.38928 10.92 3.08C10.92 2.77072 10.6693 2.52 10.36 2.52C10.0507 2.52 9.79999 2.77072 9.79999 3.08C9.79999 3.38928 10.0507 3.64 10.36 3.64Z" fill="#BDBDBD" />
  <path d="M8.12001 7H5.88001C5.73149 7 5.58905 7.059 5.48403 7.16402C5.37901 7.26904 5.32001 7.41148 5.32001 7.56C5.32001 7.70852 5.37901 7.85096 5.48403 7.95598C5.58905 8.061 5.73149 8.12 5.88001 8.12H8.12001C8.26853 8.12 8.41097 8.061 8.51599 7.95598C8.62101 7.85096 8.68001 7.70852 8.68001 7.56C8.68001 7.41148 8.62101 7.26904 8.51599 7.16402C8.41097 7.059 8.26853 7 8.12001 7Z" fill="#BDBDBD" />
</svg>
