<?xml version="1.0" encoding="UTF-8"?>
<svg width="15px" height="15px" viewBox="0 0 15 15" version="1.1" xmlns="http://www.w3.org/2000/svg" xmlns:xlink="http://www.w3.org/1999/xlink">
    <!-- Generator: Sketch 41.2 (35397) - http://www.bohemiancoding.com/sketch -->
    <title>icon-plus</title>
    <desc>Created with Sketch.</desc>
    <defs></defs>
    <g id="Page-1" stroke="none" stroke-width="1" fill="none" fill-rule="evenodd">
        <g id="icon-plus" fill="#7D7FD6">
            <g id="Group" transform="translate(1.000000, 1.000000)">
                <path d="M6.5,12.9997969 C10.089625,12.9997969 13,10.0894219 13,6.49979687 C13,2.910375 10.089625,0 6.5,0 C2.90996875,0 0,2.910375 0,6.49979687 C0,10.0894219 2.91017187,12.9997969 6.5,12.9997969 Z M6.5,1.625 C9.18835938,1.625 11.375,3.81184375 11.375,6.5 C11.375,9.18815625 9.18835938,11.375 6.5,11.375 C3.81164062,11.375 1.625,9.18815625 1.625,6.5 C1.625,3.81184375 3.81184375,1.625 6.5,1.625 Z" id="Shape"></path>
                <path d="M3.87298438,7.25826563 L5.74173438,7.25826563 L5.74173438,9.12721875 C5.74173438,9.54525 6.08196875,9.88548438 6.5,9.88548438 C6.91823437,9.88548438 7.25826562,9.54525 7.25826562,9.12721875 L7.25826562,7.25826563 L9.12701562,7.25826563 C9.54525,7.25826563 9.88528125,6.91803125 9.88528125,6.5 C9.88528125,6.08196875 9.54504688,5.74173438 9.12701563,5.74173438 L7.25826563,5.74173438 L7.25826563,3.87278125 C7.25826563,3.45475 6.91803125,3.11451563 6.5,3.11451563 C6.08176563,3.11451563 5.74173438,3.45475 5.74173438,3.87278125 L5.74173438,5.74173438 L3.87298438,5.74173438 C3.45495313,5.74173438 3.11471875,6.08196875 3.11471875,6.5 C3.11471875,6.91823438 3.45495313,7.25826563 3.87298438,7.25826563 Z" id="Shape"></path>
            </g>
        </g>
    </g>
</svg>