<?xml version="1.0" encoding="UTF-8"?>
<svg width="25px" height="30px" viewBox="0 0 25 30" version="1.1" xmlns="http://www.w3.org/2000/svg" xmlns:xlink="http://www.w3.org/1999/xlink">
    <!-- Generator: Sketch 41.2 (35397) - http://www.bohemiancoding.com/sketch -->
    <title>icon-cheesefree</title>
    <desc>Created with Sketch.</desc>
    <defs></defs>
    <g id="Page-1" stroke="none" stroke-width="1" fill="none" fill-rule="evenodd">
        <g id="icon-cheesefree">
            <g id="Group-2">
                <rect id="Rectangle-2" x="0" y="0" width="25" height="30"></rect>
                <g id="Page-1" transform="translate(1.000000, 0.000000)" fill="#000000">
                    <path d="M19.9390909,25.4978182 L19.8943636,25.4978182 L18.5432727,5.85927273 C18.5307273,4.70236364 17.5843636,3.76472727 16.4252727,3.76472727 L14.9209091,3.76472727 L14.9209091,3.264 C14.9209091,1.54036364 13.5190909,0.138545455 11.7954545,0.138545455 L10.5703636,0.138545455 C8.84672727,0.138545455 7.44436364,1.54036364 7.44436364,3.264 L7.44436364,3.76472727 L5.94054545,3.76472727 C4.77927273,3.76472727 3.83509091,4.70236364 3.82036364,5.85927273 L2.46927273,25.4978182 L2.42454545,25.4978182 C1.22072727,25.4978182 0.242727273,26.4758182 0.242727273,27.6796364 C0.242727273,28.8834545 1.22072727,29.8614545 2.42454545,29.8614545 L19.9369091,29.8614545 C21.1407273,29.8614545 22.1187273,28.8834545 22.1187273,27.6796364 C22.1187273,26.4758182 21.1407273,25.4978182 19.9390909,25.4978182 Z M8.67163636,3.264 C8.67163636,2.21781818 9.52418182,1.36581818 10.5703636,1.36581818 L11.7954545,1.36581818 C12.8416364,1.36581818 13.6936364,2.21781818 13.6936364,3.264 L13.6936364,3.76472727 L8.67163636,3.76472727 L8.67163636,3.264 Z M2.42672727,28.6341818 C1.90036364,28.6341818 1.47218182,28.206 1.47218182,27.6796364 C1.47218182,27.1685455 1.87909091,26.7507273 2.38636364,26.7294545 L2.32036364,27.7009091 L2.31818182,27.7434545 C2.31818182,28.0630909 2.39509091,28.3636364 2.52054545,28.6341818 L2.42672727,28.6341818 Z M17.9274545,28.6341818 L4.43618182,28.6341818 C3.95236364,28.6341818 3.55636364,28.2441818 3.54545455,27.7609091 L5.04763636,5.92309091 L5.04981818,5.88054545 C5.04981818,5.39072727 5.45018182,4.98981818 5.94272727,4.98981818 L16.4252727,4.98981818 C16.9178182,4.98981818 17.316,5.39072727 17.316,5.88054545 L18.8203636,27.7609091 C18.8094545,28.2441818 18.4134545,28.6341818 17.9274545,28.6341818 Z M19.9390909,28.6341818 L19.8452727,28.6341818 C19.9707273,28.3636364 20.0476364,28.0630909 20.0476364,27.7434545 L19.9772727,26.7294545 C20.4845455,26.7507273 20.8936364,27.1663636 20.8936364,27.6796364 C20.8914545,28.206 20.4654545,28.6341818 19.9390909,28.6341818 Z" id="Fill-1"></path>
                    <path d="M7.66854545,16.5703636 C7.66854545,17.736 5.91927273,17.736 5.91927273,16.5703636 C5.91927273,15.4025455 7.66854545,15.4025455 7.66854545,16.5703636" id="Fill-2"></path>
                    <path d="M12.0556364,16.5703636 C12.0556364,17.736 10.3063636,17.736 10.3063636,16.5703636 C10.3063636,15.4025455 12.0556364,15.4025455 12.0556364,16.5703636" id="Fill-3"></path>
                    <path d="M16.4443636,16.5703636 C16.4443636,17.736 14.6950909,17.736 14.6950909,16.5703636 C14.6950909,15.4025455 16.4443636,15.4025455 16.4443636,16.5703636" id="Fill-4"></path>
                    <path d="M9.97581818,10.0887273 C9.97581818,11.2543636 8.22654545,11.2543636 8.22654545,10.0887273 C8.22654545,8.92309091 9.97581818,8.92309091 9.97581818,10.0887273" id="Fill-5"></path>
                    <path d="M14.1349091,10.0887273 C14.1349091,11.2543636 12.3856364,11.2543636 12.3856364,10.0887273 C12.3856364,8.92309091 14.1349091,8.92309091 14.1349091,10.0887273" id="Fill-6"></path>
                    <path d="M9.41781818,23.052 C9.41781818,24.2170909 7.66854545,24.2170909 7.66854545,23.052 C7.66854545,21.8841818 9.41781818,21.8841818 9.41781818,23.052" id="Fill-7"></path>
                    <path d="M14.6934545,23.052 C14.6934545,24.2170909 12.9436364,24.2170909 12.9436364,23.052 C12.9436364,21.8841818 14.6934545,21.8841818 14.6934545,23.052" id="Fill-8"></path>
                </g>
            </g>
        </g>
    </g>
</svg>