<?xml version="1.0" encoding="UTF-8"?>
<svg width="25px" height="30px" viewBox="0 0 25 30" version="1.1" xmlns="http://www.w3.org/2000/svg" xmlns:xlink="http://www.w3.org/1999/xlink">
    <!-- Generator: Sketch 41.2 (35397) - http://www.bohemiancoding.com/sketch -->
    <title>icon-servings</title>
    <desc>Created with Sketch.</desc>
    <defs></defs>
    <g id="Page-1" stroke="none" stroke-width="1" fill="none" fill-rule="evenodd">
        <g id="icon-servings">
            <g id="Group">
                <rect id="Rectangle-2" x="0" y="0" width="25" height="30"></rect>
                <g id="Page-1" fill="#000000">
                    <path d="M3.98153846,13.4376923 L3.64461538,27.2207692 C3.64461538,28.5153846 4.69615385,29.5676923 5.99153846,29.5676923 C7.28692308,29.5676923 8.33846154,28.5153846 8.33846154,27.2053846 L8.00153846,13.4376923 C10.3307692,12.4761538 11.92,9.91615385 11.92,7.04307692 C11.92,3.29307692 9.26076923,0.24 5.99153846,0.24 C2.72230769,0.24 0.0630769231,3.29307692 0.0630769231,7.04307692 C0.0661538462,9.91615385 1.65538462,12.4761538 3.98153846,13.4376923 Z M5.99461538,1.44230769 C8.6,1.44230769 10.7215385,3.95461538 10.7215385,7.04307692 C10.7215385,9.57 9.27846154,11.7938462 7.21153846,12.4492308 L6.78153846,12.5838462 L7.13923077,27.2207692 C7.13923077,27.8515385 6.62538462,28.3684615 5.99461538,28.3684615 C5.36384615,28.3684615 4.84692308,27.8546154 4.84692308,27.2353846 L5.20461538,12.5869231 L4.77461538,12.4523077 C2.71,11.7969231 1.26769231,9.57307692 1.26769231,7.04615385 C1.26538462,3.95461538 3.38615385,1.44230769 5.99461538,1.44230769 Z" id="Fill-1"></path>
                    <path d="M17.1761538,13.4076923 L16.8392308,27.2207692 C16.8392308,28.5153846 17.8938462,29.5676923 19.1861538,29.5676923 C20.4815385,29.5676923 21.5330769,28.5153846 21.5330769,27.2053846 L21.1961538,13.4046154 C22.7953846,12.6923077 24.3723077,11.0969231 24.3723077,9.00846154 L24.3723077,0.285384615 L14,0.285384615 L14,9.00846154 C14,11.1 15.5776923,12.6923077 17.1761538,13.4076923 Z M15.2015385,1.48769231 L17.0138462,1.48769231 L17.0138462,8.81923077 L18.2153846,8.81923077 L18.2153846,1.48769231 L20.3338462,1.48769231 L20.3338462,8.81923077 L21.5361538,8.81923077 L21.5361538,1.48769231 L23.1738462,1.48769231 L23.1738462,9.01153846 C23.1738462,10.6223077 21.7730769,11.9530769 20.3915385,12.44 L19.9792308,12.5838462 L20.3369231,27.2238462 C20.3369231,27.8546154 19.8230769,28.3715385 19.1923077,28.3715385 C18.5615385,28.3715385 18.0446154,27.8576923 18.0446154,27.2384615 L18.4023077,12.5838462 L17.9907692,12.44 C16.6084615,11.9561538 15.2076923,10.6223077 15.2076923,9.01153846 L15.2076923,1.48769231 L15.2015385,1.48769231 Z" id="Fill-2"></path>
                </g>
            </g>
        </g>
    </g>
</svg>