<svg version="1" xmlns="http://www.w3.org/2000/svg" width="933.333" height="933.333" viewBox="0 0 700.000000 700.000000"><path d="M315.3 1.1c-98.4 6.7-189 56.1-248.1 135.3C33.9 181.1 12 233.8 4.1 288.5.2 315.4-.1 330.2.2 498l.3 161.5 2.2 4.1c2.7 5.1 8 9.8 13 11.5 3.1 1.2 33.7 1.4 176.8 1.4 190.2 0 178.9.3 211.8-6.1 72.3-14.1 140.5-53.5 188.9-109.3 45.2-52 72.2-112.6 81.4-182.7 2.2-16.2 2.5-59.9.6-75.4-7.1-57.9-24.3-105.7-54.7-151.5-11.1-16.7-19.5-27.4-32.8-41.5C525.4 43.8 448.3 7 359.5 1c-16.9-1.1-26.6-1.1-44.2.1zm43.9 182.3c10.4 2.6 22.1 7.7 29.2 12.5 10.5 7.2 22 19.1 27.1 27.8 1.9 3.2 2.1 3.3 8.8 3.3 20.7 0 43.1 10.6 55.5 26.3 11.1 14 15.6 26.5 15.6 43.7.1 13.8-1.2 19.6-6.9 31.5-6.7 14-16.3 24.1-30.1 31.6l-7.4 4.1v60.4c0 66.7.1 65.5-6.2 69.4-3.3 2-4.8 2-106.1 2-112.9 0-107.3.3-111-5.9-1.6-2.7-1.7-8.2-1.7-64.3v-61.5l-7.6-3.8c-18.2-9.2-32.4-28.5-36.5-49.3-1.7-8.9-.7-25.9 2.1-34.2 10-29.8 37.8-50 68.8-50 6.2 0 7-.2 7.9-2.3 2.4-5.2 12.9-17 20.6-23.2 17.2-13.9 34.8-20.2 56.8-20.4 9.2-.1 13.6.4 21.1 2.3z"/><path d="M329.5 207c-19.9 2.8-38.5 15.5-48.9 33.6-7.6 13.1-7.4 13-22.7 12.6-18.8-.5-26.7 2.1-37.8 12.4-4.3 4-7.2 7.7-9.7 13-3.2 6.4-3.7 8.5-4.2 16.6-.3 6.8 0 10.8 1.2 14.8 4.5 15.4 17.3 27.8 32.8 32 2.6.7 5.8 2.5 7.5 4.2l2.8 2.9.5 38.2.5 38.2 86.7.3 86.7.2.3-37.9c.3-44.4-.3-41.9 11.4-46.1 14.8-5.4 23-11.9 28.7-22.8 14.1-26.8-.4-58.1-30.4-65.8-4.9-1.3-8.4-1.5-14.9-.9-15.7 1.4-17 .8-22.4-9.3-13.5-25.5-40.8-40-68.1-36.2zM251.7 449.7c-.4.3-.7 5.3-.7 11V471h174v-22h-86.3c-47.5 0-86.7.3-87 .7z"/></svg>