<?xml version="1.0" encoding="UTF-8"?>
<svg width="16px" height="16px" viewBox="0 0 16 16" version="1.1" xmlns="http://www.w3.org/2000/svg" xmlns:xlink="http://www.w3.org/1999/xlink">
    <!-- Generator: Sketch 47.1 (45422) - http://www.bohemiancoding.com/sketch -->
    <title>Icon /Basket</title>
    <desc>Created with Sketch.</desc>
    <defs></defs>
    <g id="Symbols" stroke="none" stroke-width="1" fill="none" fill-rule="evenodd">
        <g id="Icon-/Basket" stroke="#865ECD" stroke-width="0.4" fill="#865ECD" fill-rule="nonzero">
            <path d="M15.6248389,5.67526447 L12.9122823,5.67526447 L11.0450515,1.70974712 C10.9545638,1.52607319 10.7336644,1.44867791 10.5483297,1.53571352 C10.3629951,1.62274913 10.2814807,1.84216193 10.3650338,2.02909243 L12.080106,5.67526447 L3.91801554,5.67526447 L5.6330877,2.02909243 C5.71664079,1.84216193 5.6351264,1.62274913 5.44979175,1.53571352 C5.2644571,1.44867791 5.04355771,1.52607319 4.95307004,1.70974712 L3.08771773,5.67526447 L0.375161102,5.67526447 C0.25734613,5.67543458 0.146433645,5.73086062 0.0755675475,5.82497966 C0.00470145019,5.91909869 -0.0179105215,6.04100982 0.0144887525,6.15428243 L2.00570068,13.1272812 C2.33474802,14.2513583 3.36479645,15.0244682 4.53604264,15.0264465 L11.4639574,15.0264465 C12.6352036,15.0244682 13.665252,14.2513583 13.9942993,13.1272812 L15.9855112,6.15428243 C16.0179105,6.04100982 15.9952985,5.91909869 15.9244325,5.82497966 C15.8535664,5.73086062 15.7426539,5.67543458 15.6248389,5.67526447 Z M13.2710761,12.920646 C13.0376089,13.7242222 12.3007606,14.2764755 11.4639574,14.2750458 L4.53604264,14.2750458 C3.69714347,14.275512 2.95962106,13.7196869 2.72892389,12.913132 L0.872964085,6.4266652 L15.1270359,6.4266652 L13.2710761,12.920646 Z" id="Icon"></path>
        </g>
    </g>
</svg>