<?xml version="1.0" encoding="UTF-8"?>
<svg width="19px" height="24px" viewBox="0 0 19 24" version="1.1" xmlns="http://www.w3.org/2000/svg" xmlns:xlink="http://www.w3.org/1999/xlink">
    <!-- Generator: Sketch 50.2 (55047) - http://www.bohemiancoding.com/sketch -->
    <title>Combined Shape</title>
    <desc>Created with Sketch.</desc>
    <defs></defs>
    <g id="Symbols" stroke="none" stroke-width="1" fill="none" fill-rule="evenodd">
        <path d="M5.30648278,8.18994633 C5.84692318,8.44399684 6.25665691,8.97712268 6.28756634,9.58784954 C6.32516455,10.3307577 5.59904308,10.9744043 4.87147528,10.9963699 C4.21227665,11.0162712 3.30915558,10.5183783 3.20483345,9.82498786 C3.10343437,9.15102771 3.47067438,8.47952538 4.1271546,8.27101666 C4.13796227,8.26758397 4.14867526,8.26446129 4.15929146,8.26164077 C4.15505216,8.23101115 4.15298543,8.19885505 4.15330652,8.16517265 C4.15757463,7.71745448 4.13487893,7.22288348 4.11124547,6.70570859 C3.19279505,6.7057415 2.27434463,6.70577441 1.35589422,6.70580732 C0.6122184,6.70583372 0.613450431,5.55198757 1.35589375,5.55196117 C2.26000499,5.55192877 3.16411628,5.55189637 4.06822758,5.55186397 C4.0397012,4.19033016 4.12661819,2.79677998 4.75265562,1.76596135 C5.73952015,0.141012369 7.60762288,0.477170262 9.26012598,0.471701908 C10.7895681,0.466640769 12.8466128,0.214637031 13.9126335,1.59278783 C14.635987,2.52793859 14.7238513,3.97776638 14.6886188,5.37549469 C16.0631476,5.28305461 17.5450351,5.31017374 18.0355554,6.02460392 C18.6008707,6.84797377 18.1449645,8.96965911 18.1520792,9.93518391 C18.165048,11.695588 18.1780168,13.4559913 18.1909856,15.2163954 C18.2066552,17.3434577 18.8601516,20.6048214 17.2834603,22.3746643 C15.708336,24.1427483 12.1968432,23.3938434 10.1236148,23.4076679 C8.34985098,23.419494 6.57598685,23.4386866 4.80219222,23.4431498 C3.75595311,23.4457819 2.66441031,23.5519356 1.7471382,22.9473178 C-0.219541938,21.6509874 0.150602031,18.6979998 0.151268862,16.7111646 C0.152431108,13.2486349 0.153592892,9.78610435 0.154754908,6.32357377 C0.155004462,5.57990982 1.3088502,5.58111808 1.30860106,6.32357377 C1.30782637,8.63192723 1.30705172,10.9402806 1.30627703,13.2486349 C1.30588971,14.4028112 1.30550234,15.5569875 1.30511502,16.7111646 C1.30470037,17.9458994 1.00876938,20.1846842 1.72979645,21.2138232 C3.07546938,23.1345344 8.09700392,22.2673346 10.1236152,22.2538218 C11.2856193,22.2460732 12.516243,22.3509557 13.67123,22.2301659 C16.0060589,21.9859878 16.9144363,21.5446014 17.0610316,19.1190896 C17.1916246,16.9583447 17.0336362,14.7408283 17.0176867,12.5757901 C17.0090402,11.402187 17.0003938,10.2285849 16.9917491,9.05498271 C16.987425,8.46818165 16.9831026,7.88137966 16.9787785,7.29457902 C16.6556396,6.69313874 16.1646212,6.49671277 15.505725,6.70530028 C15.224132,6.65217895 14.9343683,6.61278236 14.638449,6.58445155 C14.6163692,7.04430345 14.5977088,7.4774435 14.6042475,7.85978026 C14.604721,7.8874674 14.6035789,7.91412098 14.6009402,7.93974136 C15.3570677,8.19271784 15.5503426,9.1809904 15.4071474,9.895428 C15.2392098,10.7333169 14.4726598,11.0443153 13.6861673,10.9216065 C12.9158724,10.8014242 12.2709257,10.1283857 12.2519391,9.33231706 C12.2349754,8.62107839 12.7706171,7.95929708 13.4594873,7.95930721 C13.4541047,7.92776012 13.4509965,7.89458423 13.4504013,7.85978026 C13.4430599,7.43051133 13.4568318,6.98016993 13.468903,6.52437532 C11.7864604,6.50124685 9.99807116,6.70549768 8.43080958,6.7055538 C7.38899432,6.70559113 6.34717906,6.70562846 5.3053638,6.7056658 C5.30805052,7.19345777 5.31177194,7.6806354 5.30715268,8.16517288 C5.30707306,8.17352461 5.30684867,8.18178243 5.30648278,8.18994633 Z M4.82422052,8.71505035 C4.87282845,8.98070577 4.76294793,9.27913333 4.43389278,9.38364646 C4.38383238,9.39954582 4.38463389,9.4432878 4.3519914,9.5156118 C4.31102506,9.60637754 4.4097858,9.70045943 4.29958625,9.58381948 C4.39596222,9.68582862 4.68749298,9.862668 4.84430608,9.84435217 C4.90764558,9.83695403 5.05884231,9.75481888 5.09789571,9.69756762 C5.14842051,9.72247348 5.16152049,9.70139875 5.13719562,9.63434252 C5.13144009,9.5864604 5.11704522,9.54187514 5.09401352,9.50058748 C5.01021457,9.31388594 4.84928423,9.22809397 4.6587498,9.18455008 C4.30183038,9.10298174 4.19553003,8.79184541 4.26590471,8.51676537 C4.39588997,8.6797888 4.61826568,8.74591297 4.82422052,8.71505035 Z M13.7323662,8.34167184 C13.8751378,8.41896504 14.0508606,8.43674181 14.2070622,8.39484359 C14.3333053,8.79443563 14.0358092,9.31410525 13.5335946,9.13853686 C13.3489873,9.07400008 13.3976124,9.36207429 13.4493344,9.47509703 C13.5459384,9.68619826 13.7396023,9.77848606 13.9592109,9.79717075 C14.2118436,9.81866538 14.2653017,9.82488129 14.2912656,9.58222606 C14.3109107,9.39862938 14.3327056,9.04482651 14.1200514,9.00920455 C13.7454851,8.94646162 13.6444101,8.62463897 13.7323662,8.34167184 Z M5.3055327,5.55181963 C7.67383809,5.55173477 10.0421434,5.5516499 12.410448,5.55156503 C12.677276,5.55155547 13.0517817,5.51837537 13.483427,5.47813967 C13.4795057,5.01046362 13.4553931,4.54962052 13.3863179,4.11256952 C12.9550077,1.38359829 11.3158757,1.61874545 9.26012594,1.62554829 C8.65896429,1.62753757 7.86453568,1.53050788 7.27265958,1.63212512 C5.59205686,1.92066217 5.43545677,2.76294554 5.35052049,4.15800125 C5.32235977,4.62052871 5.31009509,5.085725 5.3055327,5.55181962 Z" id="Combined-Shape" fill="#F9CA24" fill-rule="nonzero"></path>
    </g>
</svg>