<?xml version="1.0" encoding="UTF-8"?>
<svg width="19px" height="24px" viewBox="0 0 19 24" version="1.1" xmlns="http://www.w3.org/2000/svg" xmlns:xlink="http://www.w3.org/1999/xlink">
    <!-- Generator: Sketch 50.2 (55047) - http://www.bohemiancoding.com/sketch -->
    <title>Icon /Groceries</title>
    <desc>Created with Sketch.</desc>
    <defs></defs>
    <g id="Symbols" stroke="none" stroke-width="1" fill="none" fill-rule="evenodd">
        <g id="Navigation-/Bottom" transform="translate(-69.000000, -18.000000)" fill="#1E2125">
            <g id="Icon-/Groceries" transform="translate(66.000000, 18.000000)">
                <g id="Groceries" transform="translate(3.000000, 0.000000)">
                    <path d="M1.35589422,6.70580732 C3.71419934,6.70572282 6.07250446,6.70563831 8.43080958,6.7055538 C10.6553834,6.70547414 13.3254635,6.29400314 15.505725,6.70530028 C16.1646212,6.49671277 16.6556396,6.69313874 16.9787785,7.29457902 C16.9831026,7.88137966 16.987425,8.46818165 16.9917491,9.05498271 C17.0003938,10.2285849 17.0090402,11.402187 17.0176867,12.5757901 C17.0336362,14.7408283 17.1916246,16.9583447 17.0610316,19.1190896 C16.9144363,21.5446014 16.0060589,21.9859878 13.67123,22.2301659 C12.516243,22.3509557 11.2856193,22.2460732 10.1236152,22.2538218 C8.09700392,22.2673346 3.07546938,23.1345344 1.72979645,21.2138232 C1.00876938,20.1846842 1.30470037,17.9458994 1.30511502,16.7111646 C1.30550234,15.5569875 1.30588971,14.4028112 1.30627703,13.2486349 C1.30705172,10.9402806 1.30782637,8.63192723 1.30860106,6.32357377 C1.3088502,5.58111808 0.155004462,5.57990982 0.154754908,6.32357377 C0.153592892,9.78610435 0.152431108,13.2486349 0.151268862,16.7111646 C0.150602031,18.6979998 -0.219541938,21.6509874 1.7471382,22.9473178 C2.66441031,23.5519356 3.75595311,23.4457819 4.80219222,23.4431498 C6.57598685,23.4386866 8.34985098,23.419494 10.1236148,23.4076679 C12.1968432,23.3938434 15.708336,24.1427483 17.2834603,22.3746643 C18.8601516,20.6048214 18.2066552,17.3434577 18.1909856,15.2163954 C18.1780168,13.4559913 18.165048,11.695588 18.1520792,9.93518391 C18.1449645,8.96965911 18.6008707,6.84797377 18.0355554,6.02460392 C17.2185036,4.83458917 13.6509013,5.55152058 12.410448,5.55156503 C8.72559752,5.55169708 5.0407452,5.55182912 1.35589375,5.55196117 C0.613450431,5.55198757 0.6122184,6.70583372 1.35589422,6.70580732 Z" id="Shape" fill-rule="nonzero"></path>
                    <path d="M5.30715268,8.16517288 C5.31983008,6.83537603 5.26968471,5.48569329 5.35052049,4.15800125 C5.43545677,2.76294554 5.59205686,1.92066217 7.27265958,1.63212512 C7.86453568,1.53050788 8.65896429,1.62753757 9.26012594,1.62554829 C11.3158757,1.61874545 12.9550077,1.38359829 13.3863179,4.11256952 C13.5738936,5.29939445 13.4299111,6.66166482 13.4504013,7.85978026 C13.4630849,8.60146131 14.6169715,8.60378622 14.6042475,7.85978026 C14.5734453,6.05868355 15.1018436,3.13019769 13.9126335,1.59278783 C12.8466128,0.214637031 10.7895681,0.466640769 9.26012598,0.471701908 C7.60762288,0.477170262 5.73952015,0.141012369 4.75265562,1.76596135 C3.7001196,3.49904262 4.17149294,6.25744209 4.15330652,8.16517265 C4.14622657,8.90785482 5.300067,8.90847369 5.30715268,8.16517288 Z" id="Shape" fill-rule="nonzero"></path>
                    <path d="M14.1200514,9.00920455 C14.3327056,9.04482651 14.3109107,9.39862938 14.2912656,9.58222606 C14.2653017,9.82488129 14.2118436,9.81866538 13.9592109,9.79717075 C13.7396023,9.77848606 13.5459384,9.68619826 13.4493344,9.47509703 C13.3976124,9.36207429 13.3489873,9.07400008 13.5335946,9.13853686 C14.235966,9.38407777 14.537921,8.26977623 13.8403332,8.02590706 C12.9792058,7.72486671 12.2319507,8.49425829 12.2519391,9.33231706 C12.2709257,10.1283857 12.9158724,10.8014242 13.6861673,10.9216065 C14.4726598,11.0443153 15.2392098,10.7333169 15.4071474,9.895428 C15.5607659,9.12898634 15.3271479,8.0473938 14.4267901,7.89657563 C13.7004406,7.77490555 13.3881807,8.8866102 14.1200514,9.00920455 Z" id="Shape" fill-rule="nonzero"></path>
                    <path d="M4.6587498,9.18455008 C4.84928423,9.22809397 5.01021457,9.31388594 5.09401352,9.50058748 C5.11704522,9.54187514 5.13144009,9.5864604 5.13719562,9.63434252 C5.16152049,9.70139875 5.14842051,9.72247348 5.09789571,9.69756762 C5.05884231,9.75481888 4.90764558,9.83695403 4.84430608,9.84435217 C4.68749298,9.862668 4.39596222,9.68582862 4.29958625,9.58381948 C4.4097858,9.70045943 4.31102506,9.60637754 4.3519914,9.5156118 C4.38463389,9.4432878 4.38383238,9.39954582 4.43389278,9.38364646 C5.13900466,9.15969175 4.83772043,8.04532948 4.1271546,8.27101666 C3.47067438,8.47952538 3.10343437,9.15102771 3.20483345,9.82498786 C3.30915558,10.5183783 4.21227665,11.0162712 4.87147528,10.9963699 C5.59904308,10.9744043 6.32516455,10.3307577 6.28756634,9.58784954 C6.25042145,8.85391878 5.66619263,8.23205654 4.96548762,8.07192111 C4.24261006,7.90671775 3.93399545,9.01891883 4.6587498,9.18455008 Z" id="Shape" fill-rule="nonzero"></path>
                </g>
            </g>
        </g>
    </g>
</svg>