<?xml version="1.0" encoding="UTF-8"?>
<svg width="24px" height="21px" viewBox="0 0 24 21" version="1.1" xmlns="http://www.w3.org/2000/svg" xmlns:xlink="http://www.w3.org/1999/xlink">
    <!-- Generator: Sketch 50.2 (55047) - http://www.bohemiancoding.com/sketch -->
    <title>Icon /Servings</title>
    <desc>Created with Sketch.</desc>
    <defs></defs>
    <g id="Symbols" stroke="none" stroke-width="1" fill="none" fill-rule="evenodd">
        <g id="Navigation-/Bottom" transform="translate(-270.000000, -20.000000)" fill="#000000">
            <g id="Icon-/Servings" transform="translate(270.000000, 18.000000)">
                <g id="Servings" transform="translate(0.000000, 2.000000)">
                    <path d="M2.16015586,16.9155762 C5.9986537,16.9300909 9.8371511,16.9446057 13.6756487,16.9591205 C15.5948971,16.9663769 17.5141463,16.9736352 19.4333956,16.9808917 C20.1294088,16.9835248 21.2559505,16.7343201 21.8560897,17.0816767 C22.4030129,17.0127686 22.5719826,17.2597779 22.3629971,17.8227063 C22.3653042,18.2543738 22.3676113,18.6860413 22.3699203,19.1177088 C22.5699191,18.9177082 22.7699197,18.7177076 22.9699203,18.5177088 C19.3316494,18.6340503 15.6926809,18.7814081 12.0530047,18.8431678 C10.1524176,18.87542 8.2515649,18.8807832 6.35075069,18.8849085 C5.58260678,18.8865766 4.81446149,18.8878565 4.0463171,18.8893012 C3.68047147,18.8899897 3.31462651,18.8906782 2.94878107,18.8913667 C1.68232205,18.4024586 1.30090157,17.6614454 1.80451954,16.6683253 C2.56911418,16.762729 2.56226717,15.5618831 1.80451954,15.4683253 C0.345875616,15.2882301 0.29563344,16.9638813 0.399186432,18.0520057 C0.565956768,19.8044129 1.73528347,20.0669624 3.31462651,20.0906782 C9.86734594,20.1890754 16.422129,19.9270899 22.9699201,19.7177088 C23.2927716,19.7073835 23.5717017,19.4511915 23.5699201,19.1177088 C23.5652198,18.2385517 23.8908198,16.7184247 23.1234064,16.0365107 C22.1768354,15.1954029 19.1042322,15.7796485 17.9939576,15.7754499 C12.7160239,15.7554914 7.43809027,15.7355347 2.16015571,15.7155762 C1.3878985,15.7126556 1.38687158,16.912652 2.16015586,16.9155762 Z" id="Shape" fill-rule="nonzero"></path>
                    <path d="M2.21216491,15.8323078 C1.70290536,13.5992926 3.49862093,10.8269733 4.97325254,9.41321323 C5.95367477,8.47326235 6.96557693,7.24971134 8.34995266,6.90826906 C9.47261717,6.63137424 10.8248217,6.73260408 11.9769406,6.70867402 C14.6074905,6.65403715 16.5704827,6.71389982 18.6540856,8.49107482 C20.7006262,10.2366385 21.4132397,13.0695428 21.6905218,15.6626367 C21.7717785,16.4225317 22.9726666,16.4308447 22.8905218,15.6626367 C22.53622,12.3492672 21.6519232,9.28742794 18.9472027,7.2051791 C16.4168774,5.25718867 14.2650521,5.43349637 11.1294653,5.53059629 C9.89138573,5.56893581 8.46521573,5.50082702 7.28992032,5.98414944 C5.8560095,6.5738232 4.61147458,8.04040738 3.5402316,9.12153715 C1.89213499,10.7848434 0.51680544,13.7912933 1.05503016,16.1513141 C1.22667149,16.9039325 2.38391328,16.5853931 2.21216491,15.8323078 Z" id="Shape" fill-rule="nonzero"></path>
                    <path d="M3.52004011,11.7570667 C4.79996246,11.7384284 6.07988525,11.7197901 7.35980803,11.7011527 C8.13130277,11.6899182 8.13355224,10.4898853 7.35980803,10.5011527 C6.07988525,10.5197901 4.79996246,10.5384284 3.52004011,10.5570667 C2.74854514,10.5683011 2.74629614,11.768334 3.52004011,11.7570667 Z" id="Shape" fill-rule="nonzero"></path>
                    <path d="M2.07984763,14.2638611 C3.09318101,14.2638611 4.10651414,14.2638611 5.11984771,14.2638611 C5.89199021,14.2638611 5.89326917,13.0638611 5.11984771,13.0638611 C4.10651414,13.0638611 3.09318101,13.0638611 2.07984763,13.0638611 C1.30770494,13.0638611 1.30642594,14.2638611 2.07984763,14.2638611 Z" id="Shape" fill-rule="nonzero"></path>
                    <path d="M11.4190228,5.70202699 C11.4866464,5.09953997 11.6304712,4.52935454 11.8281198,3.95814562 C11.9145282,3.70842134 11.7703162,3.40968566 11.5523832,3.28055923 C11.1614118,3.04890701 10.9689926,2.37648149 11.0477738,1.94298566 C11.1434107,1.41673459 11.2914753,1.33590062 11.8961234,1.2976776 C12.2060193,1.27808736 12.8251145,1.21110466 13.0427271,1.48973371 C13.1761918,1.66062058 13.0826771,2.38690474 13.0795624,2.61294341 C13.0717612,3.17901672 12.7518091,3.03838757 12.5297379,3.48115354 C12.2862973,3.96652766 12.4395026,4.70680752 12.4419699,5.22347621 C12.4456577,5.99544245 13.645665,5.99704003 13.6419699,5.22347621 C13.639932,4.79673336 13.6745014,4.35037349 13.6357709,3.92560085 C13.3890125,4.18898525 13.3772315,4.25808696 13.6004288,4.13290598 C13.7065274,4.08830011 13.8022394,4.02761578 13.8875647,3.95085293 C14.2111404,3.64524576 14.2621765,3.18238306 14.2815857,2.76427363 C14.3351614,1.61017358 14.2925354,0.303708288 12.9046426,0.102622992 C11.8786038,-0.046035072 10.2332382,0.038988576 9.90690854,1.25414424 C9.62574826,2.3011056 9.99367488,3.75204067 10.9467205,4.31672419 C10.854808,4.09086221 10.7628964,3.86499979 10.6709848,3.63913781 C10.4359918,4.31827234 10.2989859,4.98960701 10.2190228,5.7020269 C10.13302,6.46825104 11.3337076,6.46212523 11.4190228,5.70202699 Z" id="Shape" fill-rule="nonzero"></path>
                </g>
            </g>
        </g>
    </g>
</svg>