<?xml version="1.0" encoding="UTF-8"?>
<svg width="9px" height="14px" viewBox="0 0 9 14" version="1.1" xmlns="http://www.w3.org/2000/svg" xmlns:xlink="http://www.w3.org/1999/xlink">
    <!-- Generator: Sketch 50.2 (55047) - http://www.bohemiancoding.com/sketch -->
    <title>Shape</title>
    <desc>Created with Sketch.</desc>
    <defs></defs>
    <g id="Symbols" stroke="none" stroke-width="1" fill="none" fill-rule="evenodd">
        <g id="Navigation-/Bottom-/Back" transform="translate(-24.000000, -23.000000)" fill="#1E2125" fill-rule="nonzero" stroke="#1E2125" stroke-width="2">
            <path d="M31.5130965,24.2255489 C31.3694707,24.081141 31.1745764,24 30.9713458,24 C30.7681152,24 30.5732209,24.081141 30.4295951,24.2255489 L25.224577,29.4492466 C25.0807914,29.593494 25,29.7892317 25,29.9933418 C25,30.1974519 25.0807914,30.3931896 25.224577,30.5374369 L30.4295951,35.7611347 C30.6214201,35.9635522 30.9074768,36.0455355 31.1767784,35.9752759 C31.4460801,35.9050164 31.6562413,35.6935722 31.7257217,35.4229813 C31.7952022,35.1523905 31.7130664,34.8652412 31.5111822,34.6729444 L26.8479148,29.9933418 L31.5111822,25.3137391 C31.6552219,25.1697471 31.7363578,24.9741527 31.7367169,24.7700425 C31.7370759,24.5659323 31.6566287,24.3700512 31.5130965,24.2255489 Z" id="Shape"></path>
        </g>
    </g>
</svg>