<?xml version="1.0" encoding="UTF-8"?>
<svg width="48px" height="48px" viewBox="0 0 48 48" version="1.1" xmlns="http://www.w3.org/2000/svg" xmlns:xlink="http://www.w3.org/1999/xlink">
    <!-- Generator: Sketch 50.2 (55047) - http://www.bohemiancoding.com/sketch -->
    <title>Group</title>
    <desc>Created with Sketch.</desc>
    <defs></defs>
    <g id="Interface" stroke="none" stroke-width="1" fill="none" fill-rule="evenodd">
        <g id="2-AllRecipes" transform="translate(-156.000000, -40.000000)" fill="#F9CA24" fill-rule="nonzero">
            <g id="Group" transform="translate(156.000000, 40.000000)">
                <path d="M19.6057321,18.4658574 C25.2088725,22.4634461 29.9530051,27.4615889 34.976834,32.1301771 C36.7249668,33.7546977 38.3293183,35.3439028 40.2670441,36.7363142 C42.7455484,38.5173145 44.3574582,39.208016 43.1388827,42.3854933 C42.0335999,45.2675526 41.8111728,44.5797169 40.1294476,43.1684518 C38.8560421,42.0998389 37.9517424,40.4687966 36.67097,39.3452958 C34.1519082,37.1355619 32.035454,35.4358101 29.9196642,32.7925697 C28.1692084,30.6057363 26.0213162,28.8337305 24.224816,26.6973658 C23.1967604,25.4748231 22.394337,24.0630389 21.3974812,22.817355 C20.7121858,21.9609989 17.4255894,19.5798411 20.0701785,18.4757845 C21.510089,17.8746528 20.8782594,15.4887109 19.4163437,16.0990289 C17.4214162,16.9318675 15.3129033,18.1102523 16.2144747,20.571792 C16.8300504,22.2524848 19.2634578,24.0783612 20.3270815,25.5334213 C21.714245,27.4310931 23.1396862,29.1514042 24.7943867,30.825709 C28.0091582,34.078564 30.316485,37.7292298 33.9895761,40.4697369 C36.4683168,42.3191344 37.8949383,46.6227565 41.0655645,47.0225306 C43.4136403,47.3185918 46.0410109,45.7715586 46.8188754,43.5416469 C47.7790859,40.7889994 45.6782665,37.8872702 43.690597,36.1392424 C40.1994729,33.0690323 36.4651944,30.2018025 32.9379561,27.126641 C28.8041884,23.5226885 25.3854447,19.5754858 20.8470895,16.3375751 C19.5553213,15.4159565 18.3256354,17.5525675 19.6057321,18.4658574 Z" id="Shape"></path>
                <path d="M7.93422516,2.08090133 C10.5126262,4.3136581 12.5414001,6.80115184 14.6735379,9.46117697 C15.5463658,10.5501067 16.3751601,11.260591 16.7391024,12.710506 C17.1444809,14.3255056 17.094277,16.2562531 17.4060292,17.9211834 C17.7018705,19.5011492 20.0341348,18.8322333 19.7389358,17.2557052 C19.3634776,15.2505423 19.4929237,13.1123338 19.0773673,11.1470568 C18.8196325,9.92815823 18.2673502,9.68929805 17.4156495,8.84531629 C14.6728918,6.12741724 12.6080741,2.8767008 9.64494897,0.310794295 C8.45861179,-0.716510032 6.7383775,1.04536121 7.93422516,2.08090133 Z" id="Shape"></path>
                <path d="M4.11872599,5.86349926 C8.12430449,9.95534102 12.0254631,14.1433225 15.8226902,18.4279672 C16.8713678,19.6112528 18.6033237,17.8742657 17.559714,16.6966979 C13.7624898,12.4120557 9.86133107,8.22407558 5.85574981,4.1322301 C4.74982964,3.00249314 3.01349,4.73446146 4.11872599,5.86349926 Z" id="Shape"></path>
                <path d="M0.355273446,9.68206669 C3.11330687,12.5613702 5.80140972,15.5453054 8.6481842,18.329998 C10.9437666,20.5755185 13.6171773,21.3680266 16.7206765,21.6416728 C18.2739593,21.7786323 18.2651913,19.2593311 16.7206765,19.123146 C10.3816351,18.5642114 6.2888275,12.3073683 2.06823667,7.90119926 C0.966651105,6.75117706 -0.746589644,8.53175425 0.355273446,9.68206669 Z" id="Shape"></path>
                <path d="M21.9273625,17.7378723 C25.2415548,14.8622722 27.5258035,11.6825579 30.4020458,8.48284053 C31.9107167,6.8045004 33.9333152,5.00078734 35.8265309,3.81341646 C39.4658728,1.53092075 41.9420148,2.69102323 45.2090836,4.88478838 C45.1253006,4.23386354 45.0415213,3.58293919 44.9577421,2.93201435 C39.8137086,9.37503112 33.6415318,16.2047642 27.2681403,21.4670621 C26.0340392,22.4860187 27.799835,24.236514 29.0244103,23.2254214 C35.4333565,17.9337699 41.5444669,11.1653434 46.7140139,4.69037356 C47.2315837,4.04210292 47.1812503,3.22010776 46.4626724,2.73760003 C41.5352121,-0.571082947 38.2689468,-1.20544809 33.2881438,2.64683147 C28.2544397,6.54002453 24.959519,11.8247754 20.1710927,15.9795138 C18.9610345,17.0294358 20.7241244,18.7818776 21.9273625,17.7378723 Z" id="Shape"></path>
                <path d="M18.2541901,22.9395114 C17.2401892,23.9426263 16.6477651,25.0511974 15.7953134,26.1142777 C14.5401797,27.6795374 13.5216058,27.9241044 12.1022667,29.048269 C10.0279401,30.6912034 8.40739759,32.9702775 6.4070416,34.7623764 C3.29653224,37.5490535 -2.42613115,40.4870764 1.12284646,44.9543926 C2.33726568,46.4830571 3.87776305,48.310769 6.05926496,47.9551032 C7.97373081,47.6429712 9.01242652,45.6451043 10.3022576,44.3856549 C15.2341479,39.5699279 18.4566571,33.5142494 23.1812417,28.606057 C24.2656197,27.4795389 22.5684952,25.7443056 21.4828491,26.8721425 C18.0617321,30.4262087 15.7015536,34.7498868 12.4932847,38.4902984 C11.1197892,40.0916107 9.68755211,41.5279314 8.1972697,43.0049837 C7.97457186,43.2257034 6.88638963,44.667659 6.53805133,44.8075405 C4.49979477,45.6260332 3.11730216,44.1208287 3.22740911,42.2690618 C3.42079891,39.0166545 9.68372859,35.2565806 11.9234974,32.8147487 C13.2991351,31.3150108 14.7463684,30.6136878 16.2612658,29.3312629 C17.8018731,28.0270747 18.5123246,26.0982223 19.9525825,24.6734259 C21.0646789,23.5732678 19.365273,21.8403561 18.2541901,22.9395114 Z" id="Shape"></path>
            </g>
        </g>
    </g>
</svg>