<?xml version="1.0" encoding="UTF-8"?>
<svg width="24px" height="24px" viewBox="0 0 24 24" version="1.1" xmlns="http://www.w3.org/2000/svg" xmlns:xlink="http://www.w3.org/1999/xlink">
    <g id="Symbols" stroke="none" stroke-width="1" fill="none" fill-rule="evenodd">
        <g id="Navigation-/Bottom" transform="translate(-168.000000, -18.000000)" fill="#000000">
            <g id="Icon-/Recipes" transform="translate(168.000000, 18.000000)">
                <g id="Recipes">
                    <path d="M10.2176431,9.4869983 C12.9514343,11.4332437 15.2661127,13.8666138 17.7172559,16.1395386 C18.5701758,16.9304443 19.3529443,17.7041565 20.2983673,18.3820587 C21.5076379,19.2491473 22.2940942,19.5854187 21.6995471,21.1323889 C21.1602758,22.5355335 21.0517529,22.2006574 20.2312335,21.5135761 C19.6099346,20.9933167 19.1687237,20.1992359 18.5438305,19.6522541 C17.3147717,18.5764344 16.2821466,17.748902 15.2498456,16.4620276 C14.3957922,15.3973572 13.3478283,14.5346476 12.4713098,13.4945481 C11.969718,12.8993472 11.5782129,12.2120133 11.0918436,11.605546 C10.7574856,11.1886249 9.15394406,10.0293467 10.444248,9.49183138 C11.1467853,9.1991675 10.8385135,8.03756011 10.1252399,8.33469638 C9.15190795,8.74016789 8.12315736,9.31387027 8.56303709,10.5122828 C8.86337856,11.3305362 10.0506463,12.219473 10.5695919,12.927876 C11.2463937,13.8517668 11.9418713,14.6893085 12.7492053,15.504452 C14.3177032,17.0881202 15.4434558,18.8654645 17.2355694,20.1996936 C18.4449553,21.1000818 19.1410088,23.1953211 20.6879681,23.389953 C21.8336022,23.5340918 23.1155053,22.7809113 23.495028,21.695268 C23.963518,20.3551282 22.938521,18.9424072 21.9687304,18.0913715 C20.2653991,16.5966248 18.4434319,15.2007 16.7224804,13.7035428 C14.7056011,11.9489411 13.0375845,10.0272263 10.8233056,8.45083378 C10.1930475,8.00213928 9.59307955,9.0423587 10.2176431,9.4869983 Z" id="Shape" fill-rule="nonzero"></path>
                    <path d="M4.39290619,1.25097062 C5.67180682,2.32127702 6.67808947,3.51369552 7.73564117,4.7888196 C8.16856843,5.31081485 8.57965483,5.6513965 8.76017213,6.34643558 C8.96124206,7.12061054 8.93634062,8.04614414 9.09097138,8.84425421 C9.23771026,9.60163517 10.3945258,9.28098 10.2481055,8.52524693 C10.0618762,7.56404117 10.1260822,6.53905795 9.91996397,5.59697208 C9.79212614,5.01267427 9.5181912,4.89817296 9.0957431,4.49359728 C7.73532072,3.19073045 6.71116013,1.63244938 5.2414343,0.402442512 C4.65300475,-0.090011664 3.79975939,0.754568496 4.39290619,1.25097062 Z" id="Shape" fill-rule="nonzero"></path>
                    <path d="M2.46042571,3.30810538 C4.41713242,5.31359525 6.32283048,7.36620504 8.17775846,9.46619131 C8.69003266,10.0461422 9.53608517,9.1948116 9.02628662,8.61766315 C7.17136003,6.51767808 5.26566192,4.46506896 3.30895387,2.45957726 C2.76871694,1.90587158 1.92052301,2.75474237 2.46042571,3.30810538 Z" id="Shape" fill-rule="nonzero"></path>
                    <path d="M0.566129952,5.12712571 C1.93234085,6.49902466 3.26391115,7.92077731 4.67408054,9.24759706 C5.81121312,10.317518 7.13550557,10.6951236 8.67284534,10.8255075 C9.44227469,10.8907645 9.43793141,9.69039552 8.67284534,9.62550754 C5.53275739,9.3591925 3.50535691,6.37800062 1.41465811,4.27859755 C0.868980096,3.7306476 0.020314464,4.57903747 0.566129952,5.12712571 Z" id="Shape" fill-rule="nonzero"></path>
                    <path d="M11.3395431,9.20703096 C12.9407693,7.81935792 14.0443863,6.28492906 15.4340204,4.74084734 C16.162923,3.93093384 17.1401257,3.06051936 18.0548181,2.48753198 C19.8131378,1.38607224 21.0094666,1.94590075 22.5879254,3.00454195 C22.5474463,2.69042635 22.506969,2.37631099 22.4664917,2.06219539 C19.981192,5.17139011 16.9991528,8.46720182 13.9198983,11.0066192 C13.323652,11.4983352 14.1767825,12.3430685 14.7684265,11.8551474 C17.864859,9.3015649 20.8173944,6.03533779 23.3150208,2.91072355 C23.5650805,2.59788878 23.5407624,2.2012201 23.193587,1.96837723 C20.812923,0.371712192 19.2348523,0.065587776 16.8284161,1.92457522 C14.3964212,3.80330621 12.8045059,6.35355869 10.491015,8.35850314 C9.90638486,8.86516205 10.758208,9.71083464 11.3395431,9.20703096 Z" id="Shape" fill-rule="nonzero"></path>
                    <path d="M9.50781466,11.4826556 C9.0012131,11.9735513 8.70523411,12.5160543 8.2793436,13.0362954 C7.65227054,13.8022888 7.14338429,13.9219729 6.43427309,14.4721069 C5.39792587,15.276112 4.58829211,16.3914257 3.58890106,17.2684277 C2.03487005,18.6321478 -0.824210352,20.0699322 0.948882288,22.256109 C1.55561414,23.0041937 2.3252568,23.8986236 3.41514955,23.7245709 C4.37162933,23.5718225 4.89056856,22.5941235 5.53497667,21.977785 C7.99898165,19.6211059 9.60896851,16.65763 11.9694022,14.255701 C12.5111645,13.7044152 11.66327,12.8552417 11.120874,13.4071728 C9.41166134,15.1464312 8.23250059,17.2623156 6.62962829,19.0927661 C5.94342086,19.8764026 5.22786576,20.5792968 4.48331083,21.302124 C4.37204952,21.4101379 3.8283865,22.1157898 3.65435438,22.1842438 C2.63602795,22.5847907 1.94532552,21.8481866 2.00033568,20.9419848 C2.0969545,19.3503497 5.2259555,17.5102771 6.34495877,16.3153143 C7.03223645,15.5813855 7.75528378,15.2381781 8.5121365,14.610596 C9.28183406,13.9723636 9.63678034,13.0284384 10.3563427,12.3311838 C10.9119534,11.7927979 10.062919,10.9447604 9.50781466,11.4826556 Z" id="Shape" fill-rule="nonzero"></path>
                </g>
            </g>
        </g>
    </g>
</svg>
