<?xml version="1.0" encoding="UTF-8"?>
<svg width="16px" height="16px" viewBox="0 0 16 16" version="1.1" xmlns="http://www.w3.org/2000/svg" xmlns:xlink="http://www.w3.org/1999/xlink">
  <g stroke="#15A7BC" stroke-width="0.4" fill="#15A7BC" fill-rule="nonzero">
    <path d="M3.09787234,13.0106157 L2.82553191,13.0106157 L2.82553191,13.6900212 L3.09787234,13.6900212 L3.09787234,13.0106157 Z M12.9021277,13.0106157 L12.9021277,13.6900212 L13.2425532,13.6900212 L13.2425532,13.0106157 L12.9021277,13.0106157 Z M13.2765957,16 L2.72340426,16 C2.51914894,16 2.38297872,15.8641189 2.38297872,15.6602972 L2.38297872,9.13800425 C0.953191489,8.69639066 0,7.37154989 0,5.87685775 C0,3.83864119 1.83829787,2.17409766 3.98297872,2.47983015 C4.76595745,0.985138004 6.29787234,0 8,0 C9.66808511,0 11.2340426,0.951167728 12.0170213,2.47983015 C14.1617021,2.17409766 16,3.80467091 16,5.87685775 C16,7.37154989 15.012766,8.66242038 13.6170213,9.13800425 L13.6170213,15.6602972 C13.6170213,15.8641189 13.4468085,16 13.2765957,16 Z M3.09787234,13.0106157 L12.9021277,13.0106157 L12.9021277,8.86624204 C12.9021277,8.69639066 13.0042553,8.56050955 13.1744681,8.52653928 C14.4340426,8.22080679 15.3191489,7.13375796 15.3191489,5.87685775 C15.3191489,4.17834395 13.7191489,2.78556263 11.8808511,3.19320594 C11.7446809,3.2611465 11.5744681,3.15923567 11.506383,3.02335456 C10.893617,1.63057325 9.49787234,0.713375796 8,0.713375796 C6.50212766,0.713375796 5.10638298,1.63057325 4.49361702,3.02335456 C4.42553191,3.15923567 4.25531915,3.2611465 4.11914894,3.22717622 C2.28085106,2.81953291 0.680851064,4.17834395 0.680851064,5.87685775 C0.680851064,7.13375796 1.56595745,8.25477707 2.82553191,8.52653928 C2.99574468,8.56050955 3.09787234,8.69639066 3.09787234,8.86624204 L3.09787234,13.0106157 Z M12.9021277,13.6900212 L3.09787234,13.6900212 L3.09787234,15.3205945 L3.06382979,15.3205945 L12.9021277,15.3205945 L12.9021277,13.6900212 Z"></path>
  </g>
</svg>
