<?xml version="1.0" encoding="UTF-8"?>
<svg width="15px" height="15px" viewBox="0 0 15 15" version="1.1" xmlns="http://www.w3.org/2000/svg" xmlns:xlink="http://www.w3.org/1999/xlink">
    <!-- Generator: Sketch 41.2 (35397) - http://www.bohemiancoding.com/sketch -->
    <title>icon-minus</title>
    <desc>Created with Sketch.</desc>
    <defs></defs>
    <g id="Page-1" stroke="none" stroke-width="1" fill="none" fill-rule="evenodd">
        <g id="icon-minus" fill="#7D7FD6">
            <g id="Group-9" transform="translate(1.000000, 1.000000)">
                <g id="noun_753872">
                    <g id="Group">
                        <g id="Shape">
                            <path d="M6.5,12.9997969 C10.089625,12.9997969 13,10.0894219 13,6.49979687 C13,2.910375 10.089625,0 6.5,0 C2.90996875,0 0,2.910375 0,6.49979687 C0,10.0894219 2.91017187,12.9997969 6.5,12.9997969 Z M6.5,1.625 C9.18835938,1.625 11.375,3.81184375 11.375,6.5 C11.375,9.18815625 9.18835938,11.375 6.5,11.375 C3.81164062,11.375 1.625,9.18815625 1.625,6.5 C1.625,3.81184375 3.81184375,1.625 6.5,1.625 Z"></path>
                            <path d="M3.87278125,7.25826562 L7.15670313,7.25826562 L7.67142188,7.25826562 L9.12721875,7.25826562 C9.54545313,7.25826562 9.88548438,6.91803125 9.88548438,6.5 C9.88548438,6.08196875 9.54525,5.74173437 9.12721875,5.74173437 L7.67142188,5.74173437 L7.15670313,5.74173437 L3.87278125,5.74173437 C3.45475,5.74173437 3.11451563,6.08196875 3.11451563,6.5 C3.11451563,6.91823437 3.45475,7.25826562 3.87278125,7.25826562 Z"></path>
                        </g>
                    </g>
                </g>
            </g>
        </g>
    </g>
</svg>