<?xml version="1.0" encoding="UTF-8"?>
<svg width="25px" height="30px" viewBox="0 0 25 30" version="1.1" xmlns="http://www.w3.org/2000/svg" xmlns:xlink="http://www.w3.org/1999/xlink">
    <!-- Generator: Sketch 41.2 (35397) - http://www.bohemiancoding.com/sketch -->
    <title>icon-vegetarian</title>
    <desc>Created with Sketch.</desc>
    <defs></defs>
    <g id="Page-1" stroke="none" stroke-width="1" fill="none" fill-rule="evenodd">
        <g id="icon-vegetarian">
            <g id="Group-3">
                <rect id="Rectangle-2" x="0" y="0" width="25" height="30"></rect>
                <path d="M4.26218069,3.85673978 L4.26218069,3.85673978 C3.70238687,3.47051166 2.99212994,4.0717717 3.28120866,4.68724872 C4.73193361,7.62838771 5.42619643,10.881708 5.30831392,14.1587233 C4.75503621,14.2535032 4.26455019,14.563315 3.94052138,15.0194433 L2.38553853,17.2408474 C1.5040854,18.494904 2.21197283,20.2418162 3.71838098,20.5291178 L5.80116943,27.8988479 C6.15481696,29.13928 7.28684447,29.995261 8.57762833,30 L16.6256272,30 C17.9170034,29.995261 19.0484386,29.13928 19.4026785,27.8988479 L21.4848745,20.5291178 C22.9912827,20.2441857 23.6997625,18.494904 22.817717,17.2408474 L21.2627341,15.0194433 C20.9067171,14.5147403 20.3487004,14.188342 19.7355929,14.1308817 C20.4251167,11.5759708 20.9712859,10.1323544 22.6862099,8.35523112 C23.1257517,7.90147231 22.7436702,7.14501018 22.116938,7.2303121 C20.992019,7.4062473 19.9210061,7.83216451 18.9791307,8.47548313 C18.9791307,6.22386796 19.6757631,4.36558941 20.9641774,1.68154092 C21.256218,1.07080289 20.5595857,0.464211489 19.9950529,0.836814999 C18.0141528,2.16965744 15.7927488,4.46273881 14.0203645,7.2303121 C12.6039973,4.26192389 10.7646747,2.20460753 7.7471194,0.121819075 C7.18732557,-0.264409046 6.47647627,0.337443364 6.76614736,0.952920385 C7.7956941,3.07006656 8.36733541,5.37914204 8.44612121,7.73264561 C7.25426388,6.23808495 5.84500514,4.93012223 4.26218069,3.85673978 Z M10.5976251,14.1332512 L6.64826485,14.1332512 C6.74719138,11.5439826 6.34496915,8.95886065 5.46114652,6.52242467 C7.52734849,8.38070322 9.11491193,10.756717 10.5976251,14.1332512 Z M18.1231497,27.5380919 L18.1231497,27.5380919 C17.9329975,28.2062903 17.3222595,28.6695271 16.6256272,28.6718966 L8.57525883,28.6718966 C7.87921889,28.6695271 7.26788849,28.2086598 7.07832868,27.5380919 L5.11164561,20.570584 L20.0922023,20.570584 L18.1231497,27.5380919 Z M20.1751347,15.7990081 L21.7301175,18.0204121 C22.0938354,18.5387397 21.7236014,19.2513662 21.0915379,19.2513662 L4.11645659,19.2513662 C3.48498546,19.2513662 3.11475144,18.5387397 3.47787696,18.0204121 L5.03285981,15.7990081 C5.17858392,15.5910846 5.41671843,15.4660936 5.67143943,15.4660936 L19.5365551,15.4660936 C19.7912761,15.4660936 20.0294106,15.5910846 20.1775042,15.7990081 L20.1751347,15.7990081 Z M18.3636537,14.1332512 L15.7998572,14.1332512 C16.7944539,12.2056648 18.4027504,10.3082896 20.2426654,9.28525896 C19.3422563,10.6897787 18.8843508,12.1594596 18.3636537,14.1332512 Z M18.6438468,3.66954947 L18.6438468,3.66954947 C17.8731677,5.51361103 17.5443999,7.5105052 17.6830155,9.50266037 C16.2648712,10.8052917 15.1215885,12.3792305 14.3212907,14.1332512 L12.4239154,14.1332512 C13.3746764,10.0766712 16.0012645,6.18951024 18.6438468,3.66954947 Z M8.86966892,2.68798506 L8.86966892,2.68798506 C10.7782993,4.28739599 12.2568658,6.33760385 13.1732691,8.65141833 C12.442279,9.94931068 11.8451656,11.3194727 11.3961458,12.7376171 C10.8896657,11.626915 10.3085464,10.5535326 9.65871165,9.52102398 C9.67944475,9.47067215 9.69543886,9.41735845 9.70254735,9.36167526 C9.89447666,7.1053211 9.61902256,4.83297283 8.88803253,2.68798506 L8.86966892,2.68798506 Z" id="Page-1" fill="#000000"></path>
            </g>
        </g>
    </g>
</svg>