<?xml version="1.0" encoding="UTF-8"?>
<svg width="120px" height="120px" viewBox="0 0 120 120" version="1.1" xmlns="http://www.w3.org/2000/svg" xmlns:xlink="http://www.w3.org/1999/xlink">
    <!-- Generator: Sketch 47.1 (45422) - http://www.bohemiancoding.com/sketch -->
    <title>Logo</title>
    <desc>Created with Sketch.</desc>
    <defs></defs>
    <g id="Interface" stroke="none" stroke-width="1" fill="none" fill-rule="evenodd">
        <g id="Logo">
            <path d="M62,4 L62,4 L62,4 C94.0325155,4 120,29.9674845 120,62 L120,62 L120,62 C120,94.0325155 94.0325155,120 62,120 L8,120 L8,120 C5.790861,120 4,118.209139 4,116 L4,62 L4,62 C4,29.9674845 29.9674845,4 62,4 Z" id="Rectangle-5" fill-opacity="0.24" fill="#333335"></path>
            <path d="M58,0 L58,0 L58,-7.10542736e-15 C90.0325155,-1.2989705e-14 116,25.9674845 116,58 L116,58 L116,58 C116,90.0325155 90.0325155,116 58,116 L4,116 L4,116 C1.790861,116 7.67489063e-15,114.209139 -4.4408921e-16,112 L0,58 L-7.10542736e-15,58 C-1.10282791e-14,25.9674845 25.9674845,-1.22114972e-15 58,-7.10542736e-15 Z" id="Rectangle-5" fill="#D5BB19"></path>
            <g id="Icon" transform="translate(32.000000, 32.000000)" stroke="#FFFFFF" stroke-width="2" fill="#FFFFFF">
                <path d="M43.1489362,52 L8.85106383,52 C8.18723404,52 7.74468085,51.5583864 7.74468085,50.895966 L7.74468085,29.6985138 C3.09787234,28.2632696 0,23.9575372 0,19.0997877 C0,12.4755839 5.97446809,7.06581741 12.9446809,8.05944798 C15.4893617,3.20169851 20.4680851,0 26,0 C31.4212766,0 36.5106383,3.09129512 39.0553191,8.05944798 C46.0255319,7.06581741 52,12.3651805 52,19.0997877 C52,23.9575372 48.7914894,28.1528662 44.2553191,29.6985138 L44.2553191,50.895966 C44.2553191,51.5583864 43.7021277,52 43.1489362,52 Z M9.95744681,49.7919321 L41.9319149,49.7919321 L41.9319149,28.8152866 C41.9319149,28.2632696 42.2638298,27.8216561 42.8170213,27.7112527 C46.9106383,26.7176221 49.787234,23.1847134 49.787234,19.0997877 C49.787234,13.5796178 44.587234,9.05307856 38.612766,10.3779193 C38.1702128,10.5987261 37.6170213,10.2675159 37.3957447,9.82590234 C35.4042553,5.29936306 30.8680851,2.31847134 26,2.31847134 C21.1319149,2.31847134 16.5957447,5.29936306 14.6042553,9.82590234 C14.3829787,10.2675159 13.8297872,10.5987261 13.387234,10.4883227 C7.41276596,9.16348195 2.21276596,13.5796178 2.21276596,19.0997877 C2.21276596,23.1847134 5.0893617,26.8280255 9.18297872,27.7112527 C9.73617021,27.8216561 10.0680851,28.2632696 10.0680851,28.8152866 L10.0680851,49.7919321 L9.95744681,49.7919321 Z" id="Combined-Shape" fill-rule="nonzero"></path>
                <rect id="Rectangle-path" x="9" y="42" width="34" height="2"></rect>
            </g>
        </g>
    </g>
</svg>