<?xml version="1.0" encoding="UTF-8"?>
<svg width="16px" height="16px" viewBox="0 0 16 16" version="1.1" xmlns="http://www.w3.org/2000/svg" xmlns:xlink="http://www.w3.org/1999/xlink">
    <!-- Generator: Sketch 47.1 (45422) - http://www.bohemiancoding.com/sketch -->
    <title>Icon /PenPaper</title>
    <desc>Created with Sketch.</desc>
    <defs></defs>
    <g id="Symbols" stroke="none" stroke-width="1" fill="none" fill-rule="evenodd">
        <g id="Icon-/PenPaper" stroke="#D5BB19" stroke-width="0.4" fill="#D5BB19" fill-rule="nonzero">
            <path d="M5.60904074,7.39747266 L5.18540438,10.3647454 C5.17056586,10.4696539 5.20222081,10.5758168 5.27209002,10.6554677 C5.34195924,10.7351186 5.44309319,10.780335 5.54904074,10.7792908 L5.59449529,10.7792908 L8.61267711,10.4047454 C8.69315734,10.3948826 8.76803261,10.3584049 8.82540438,10.301109 L14.7926771,4.32656356 C15.3650617,3.77500051 15.595083,2.95739221 15.3942456,2.18829518 C15.1934082,1.41919816 14.5930037,0.81844232 13.8240243,0.617155049 C13.0550449,0.415867778 12.2373022,0.645410833 11.6854044,1.21747266 L5.71267711,7.19201811 C5.65680216,7.24747878 5.6204351,7.31957487 5.60904074,7.39747266 Z M6.31267711,7.62110902 L12.1999498,1.73201811 C12.7764742,1.17044942 13.6972773,1.17649929 14.266373,1.74559495 C14.8354687,2.31469061 14.8415185,3.23549375 14.2799498,3.81201811 L8.39449529,9.69747266 L5.97267711,9.99747266 L6.31267711,7.62110902 Z M8.90909091,0 C9.10992173,0 9.27272727,0.162805546 9.27272727,0.363636364 C9.27272727,0.564467182 9.10992173,0.727272727 8.90909091,0.727272727 L2.81818182,0.727272727 C2.21568936,0.727272727 1.72727273,1.21568936 1.72727273,1.81818182 L1.72727273,14.1818182 C1.72727273,14.7843106 2.21568936,15.2727273 2.81818182,15.2727273 L14.0909091,15.2727273 C14.6934015,15.2727273 15.1818182,14.7843106 15.1818182,14.1818182 L15.1818182,6.77272727 C15.1818182,6.57189645 15.3446237,6.40909091 15.5454545,6.40909091 C15.7462854,6.40909091 15.9090909,6.57189645 15.9090909,6.77272727 L15.9090909,14.1818182 C15.9090909,15.1859723 15.0950632,16 14.0909091,16 L2.81818182,16 C1.81402773,16 1,15.1859723 1,14.1818182 L1,1.81818182 C1,0.814027728 1.81402773,1.61486985e-16 2.81818182,0 L8.90909091,0 Z" id="Icon"></path>
        </g>
    </g>
</svg>