<?xml version="1.0" encoding="UTF-8"?>
<svg width="16px" height="16px" viewBox="0 0 16 16" version="1.1" xmlns="http://www.w3.org/2000/svg" xmlns:xlink="http://www.w3.org/1999/xlink">
    <!-- Generator: Sketch 47.1 (45422) - http://www.bohemiancoding.com/sketch -->
    <title>Icon /Add</title>
    <desc>Created with Sketch.</desc>
    <defs></defs>
    <g id="Symbols" stroke="none" stroke-width="1" fill="none" fill-rule="evenodd">
        <g id="Icon-/Add" fill-rule="nonzero" fill="#15A7BC">
            <path d="M0.648648649,8.86486486 L7.13513514,8.86486486 L7.13513514,15.3513514 C7.13513514,15.6972973 7.43783784,16 7.78378378,16 C8.12972973,16 8.43243243,15.6972973 8.43243243,15.3513514 L8.43243243,8.86486486 L15.3513514,8.86486486 C15.6972973,8.86486486 16,8.56216216 16,8.21621622 C16,7.87027027 15.6972973,7.56756757 15.3513514,7.56756757 L8.43243243,7.56756757 L8.43243243,0.648648649 C8.43243243,0.302702703 8.12972973,0 7.78378378,0 C7.43783784,0 7.13513514,0.302702703 7.13513514,0.648648649 L7.13513514,7.56756757 L0.648648649,7.56756757 C0.302702703,7.56756757 0,7.87027027 0,8.21621622 C0,8.56216216 0.302702703,8.86486486 0.648648649,8.86486486 Z" id="Shape"></path>
        </g>
    </g>
</svg>