<?xml version="1.0" encoding="UTF-8"?>
<svg width="16px" height="16px" viewBox="0 0 16 16" version="1.1" xmlns="http://www.w3.org/2000/svg" xmlns:xlink="http://www.w3.org/1999/xlink">
    <!-- Generator: Sketch 47.1 (45422) - http://www.bohemiancoding.com/sketch -->
    <title>Icon /Save</title>
    <desc>Created with Sketch.</desc>
    <defs>
        <path d="M14.8338911,3.14362309 L5.97391621,11.6053968 L1.04617738,6.67765801 C0.847076819,6.47855745 0.548425981,6.47855745 0.349325422,6.67765801 C0.150224863,6.87675857 0.150224863,7.1754094 0.349325422,7.37450996 L5.62549023,12.6506748 C5.72504051,12.7502251 5.87436593,12.8000002 5.97391621,12.8000002 C6.07346649,12.8000002 6.22279191,12.7502251 6.32234219,12.6506748 L15.530743,3.89025018 C15.7298436,3.69114963 15.7298436,3.39249879 15.530743,3.19339823 C15.3316425,2.94452253 15.0329916,2.94452253 14.8338911,3.14362309 Z" id="path-1"></path>
    </defs>
    <g id="Symbols" stroke="none" stroke-width="1" fill="none" fill-rule="evenodd">
        <g id="Icon-/Save" fill-rule="nonzero">
            <g id="Shape">
                <use fill="#15A7BC" fill-rule="evenodd" xlink:href="#path-1"></use>
                <path stroke="#15A7BC" stroke-width="0.2" d="M14.7640262,3.07206807 C15.0121935,2.82477497 15.3788144,2.84341047 15.6014537,3.12268755 C15.8396067,3.36084054 15.8396067,3.72280788 15.5996694,3.96270122 L6.39305286,12.7213854 C6.28272574,12.8317126 6.1120067,12.9000002 5.97391621,12.9000002 C5.83582572,12.9000002 5.66510668,12.8317126 5.55477955,12.7213854 L0.278614744,7.44522064 C0.040461756,7.20706765 0.040461756,6.84510032 0.278614744,6.60694733 C0.516767732,6.36879434 0.878735068,6.36879434 1.11688806,6.60694733 L5.97552306,11.4655823 L14.7640262,3.07206807 Z"></path>
            </g>
        </g>
    </g>
</svg>